<?xml version="1.0" standalone="no"?>
<!DOCTYPE svg PUBLIC "-//W3C//DTD SVG 20010904//EN"
 "http://www.w3.org/TR/2001/REC-SVG-20010904/DTD/svg10.dtd">
<svg version="1.0" xmlns="http://www.w3.org/2000/svg"
 width="600.000000pt" height="700.000000pt" viewBox="0 0 600.000000 700.000000"
 preserveAspectRatio="xMidYMid meet">
<metadata>
Created by potrace 1.16, written by Peter Selinger 2001-2019
</metadata>
<g transform="translate(0.000000,700.000000) scale(0.100000,-0.100000)"
fill="#000000" stroke="none">
<path d="M2575 6914 c-110 -34 -319 -99 -465 -144 -273 -84 -601 -190 -610
-198 -3 -2 4 -10 15 -18 11 -8 47 -40 80 -72 75 -70 194 -168 344 -281 l114
-85 -43 -36 c-57 -46 -99 -87 -133 -128 -45 -56 -34 -122 36 -213 l35 -47 -30
-28 c-59 -57 -133 -247 -159 -409 -7 -44 -13 -81 -14 -82 -1 -2 -36 17 -78 41
-106 60 -155 73 -225 58 -70 -15 -130 -54 -148 -97 -24 -57 14 -115 76 -115
39 0 66 15 123 69 33 31 44 36 86 35 34 0 64 -9 102 -31 l54 -30 2 -74 c1 -48
11 -103 27 -154 19 -58 26 -102 26 -161 0 -85 18 -160 55 -234 16 -33 20 -51
14 -62 -7 -13 -4 -21 13 -31 13 -8 46 -28 73 -45 89 -55 276 -140 423 -191
301 -106 461 -202 517 -312 29 -55 42 -67 97 -84 38 -11 47 -10 79 5 19 10 41
30 47 45 12 26 11 25 -30 -9 -23 -20 -46 -36 -50 -36 -45 0 -148 106 -201 208
-37 70 -107 242 -107 262 0 6 18 1 40 -11 33 -19 50 -41 91 -118 52 -98 127
-211 138 -211 4 0 12 5 19 12 8 8 18 9 36 0 20 -9 27 -7 48 16 49 53 109 141
148 215 32 63 41 73 51 61 15 -19 -7 -97 -57 -196 l-33 -66 85 53 c47 30 102
59 122 66 20 6 49 19 64 27 l27 16 -47 32 c-26 17 -75 61 -108 98 -83 89 -108
163 -102 298 4 105 30 177 94 255 35 42 36 43 64 28 27 -14 28 -17 18 -52 -13
-49 -6 -179 13 -217 14 -30 77 -69 130 -81 37 -9 120 61 179 149 l45 68 40 -7
c22 -3 59 -9 83 -12 23 -3 42 -10 42 -15 0 -21 -109 -166 -175 -233 -112 -113
-204 -146 -319 -114 -21 6 -50 8 -65 4 l-26 -7 50 -44 c28 -25 82 -61 121 -80
l70 -35 102 40 c160 64 502 240 502 259 0 3 -11 20 -25 38 l-26 34 19 37 c11
21 25 55 31 76 7 20 16 37 20 37 11 0 41 -109 41 -148 0 -39 12 -40 59 -5 20
14 37 27 38 27 3 2 -45 143 -56 165 -10 18 -9 26 7 49 23 31 52 123 52 163 l0
27 63 -19 c277 -86 789 -215 822 -207 16 4 -384 1217 -405 1227 -8 5 -40 14
-70 21 -97 21 -331 92 -475 142 -518 182 -1057 489 -1480 843 l-50 42 -200
-63z m-234 -1325 c10 -19 4 -29 -52 -87 l-64 -66 53 45 c95 78 84 77 139 18
125 -136 333 -313 488 -417 55 -37 103 -71 107 -76 3 -5 13 -11 21 -12 7 -1
32 -13 54 -27 22 -14 85 -48 141 -76 l102 -51 -37 -48 c-47 -61 -81 -135 -95
-209 -7 -32 -13 -59 -14 -61 -1 -2 -19 8 -39 23 -40 27 -119 34 -168 16 l-24
-9 5 92 c9 175 -54 312 -199 428 -121 97 -241 140 -394 140 -156 1 -259 -30
-367 -109 l-47 -34 15 53 c20 66 74 175 127 253 46 69 204 235 223 235 8 0 18
-10 25 -21z m270 -466 c47 -23 107 -61 134 -85 101 -89 165 -228 165 -360 0
-73 -17 -158 -31 -158 -4 0 -13 -10 -20 -21 -8 -15 -8 -19 0 -15 22 14 10 -11
-37 -71 -47 -63 -114 -119 -142 -121 -8 -1 -49 -13 -90 -28 -88 -31 -218 -38
-310 -15 -142 35 -278 136 -340 253 -30 56 -35 74 -38 157 -5 102 11 122 21
27 15 -150 158 -294 346 -350 90 -26 99 -21 42 24 -120 95 -361 471 -361 563
0 37 38 85 106 137 110 83 202 110 360 107 108 -2 113 -3 195 -44z m495 -612
c49 -22 80 -62 100 -133 9 -29 27 -75 40 -102 27 -55 29 -51 -46 -90 -30 -16
-58 -43 -83 -78 -20 -30 -48 -65 -62 -78 l-25 -24 -30 29 c-17 16 -45 51 -61
77 -24 38 -49 58 -121 99 l-90 52 33 25 c51 39 109 103 130 143 19 38 67 74
117 89 41 12 53 11 98 -9z"/>
<path d="M2542 4940 c-85 -39 -192 -164 -192 -227 0 -63 138 -245 197 -259 61
-16 155 41 173 104 32 117 -20 336 -92 386 -28 20 -34 20 -86 -4z"/>
<path d="M1300 4623 c-93 -16 -299 -158 -350 -241 -22 -37 -29 -41 -55 -37
-100 16 -198 25 -203 21 -3 -3 -9 -31 -13 -62 -7 -53 -4 -67 47 -208 30 -83
54 -154 54 -158 0 -3 -15 -9 -32 -13 -55 -11 -140 -37 -136 -41 2 -2 28 3 58
10 153 38 155 26 5 -29 -55 -21 -143 -58 -195 -83 -52 -25 -99 -48 -105 -50
-5 -3 4 10 20 27 17 18 70 52 119 77 103 51 98 59 -8 11 -197 -92 -208 -202
-24 -241 40 -9 86 -17 102 -18 24 -3 31 -9 41 -43 15 -52 51 -120 115 -220 62
-98 74 -138 65 -226 -6 -60 -5 -69 14 -88 12 -12 32 -21 46 -21 30 0 30 -1 5
-42 -11 -18 -20 -44 -20 -58 0 -40 62 -160 119 -228 42 -50 61 -65 96 -74 44
-12 44 -12 49 -62 9 -87 14 -286 7 -286 -4 0 -103 22 -221 49 l-214 49 -29
-22 c-37 -27 -81 -121 -103 -221 -35 -156 -15 -406 40 -513 20 -39 101 -112
125 -112 21 0 2763 -569 2769 -574 5 -6 -204 -116 -219 -116 -7 0 -396 86
-864 191 -467 105 -1118 251 -1445 324 l-595 133 -28 -26 c-128 -122 -158
-511 -56 -728 31 -65 74 -111 112 -118 207 -39 374 -73 732 -148 237 -49 495
-102 575 -119 80 -16 228 -48 330 -69 102 -22 219 -46 260 -54 91 -18 84 -17
300 -62 96 -20 236 -50 310 -66 86 -20 175 -32 247 -35 l113 -5 187 90 c104
50 283 136 398 192 116 56 246 119 290 140 44 21 175 84 290 140 116 56 248
120 295 142 47 22 184 89 305 148 121 58 266 128 323 155 l102 49 0 43 c0 39
-2 43 -17 34 -10 -5 -184 -86 -388 -181 -547 -255 -1012 -478 -1449 -697
l-390 -195 -260 47 c-840 151 -2535 515 -2579 553 -10 9 -28 47 -40 86 -19 62
-22 93 -22 251 0 158 3 189 22 251 38 119 9 117 394 30 184 -41 496 -111 694
-156 597 -133 1008 -226 1443 -324 l414 -93 216 99 c119 54 222 96 229 93 8
-2 12 -1 9 3 -3 5 11 16 30 25 47 23 57 21 14 -3 -48 -26 -31 -25 24 2 25 12
42 26 39 31 -3 6 -1 7 5 3 11 -6 142 52 467 209 239 115 832 385 847 385 7 0
76 29 153 63 l140 63 3 43 c3 41 2 42 -20 36 -32 -10 -354 -146 -587 -249
-107 -47 -196 -84 -198 -82 -2 1 57 31 129 66 73 35 238 115 367 177 128 62
239 113 246 113 7 0 81 34 164 75 84 41 167 82 186 90 33 13 35 17 35 60 l0
46 -27 -15 c-16 -7 -197 -93 -403 -189 -576 -268 -784 -368 -1322 -634 l-497
-246 -238 42 c-614 110 -1778 352 -2408 502 -192 46 -203 53 -231 142 -24 78
-31 349 -10 446 19 90 46 145 73 149 17 3 344 -65 405 -84 12 -3 20 -20 24
-45 l7 -39 146 6 146 7 295 -66 c162 -36 318 -69 345 -73 28 -4 66 -12 85 -19
19 -8 49 -16 65 -19 l30 -6 -38 33 -38 33 66 11 c94 16 153 49 191 105 l32 48
22 -73 c24 -81 96 -237 109 -237 15 0 21 29 21 98 0 64 -14 174 -27 217 -5 18
-5 19 18 2 68 -49 101 -60 166 -54 57 4 78 -2 54 -17 -12 -8 -68 -150 -82
-211 -7 -27 -14 -44 -17 -37 -2 6 -7 12 -12 12 -4 0 -1 -19 7 -42 20 -56 22
-144 4 -187 l-15 -34 -18 23 c-15 19 -25 22 -55 17 -20 -4 -48 -18 -62 -31
-21 -22 -23 -28 -13 -51 11 -23 10 -25 -11 -25 -12 0 -51 14 -86 30 -38 18
-59 24 -51 15 7 -8 9 -15 4 -15 -20 -1 140 -50 163 -50 13 0 37 -7 54 -16 43
-22 69 -11 69 31 0 18 11 55 25 82 26 52 32 94 20 161 -7 37 -5 42 12 42 17 0
402 -83 445 -96 10 -3 19 -20 23 -44 4 -22 17 -55 30 -74 14 -20 21 -43 18
-57 -2 -13 2 -33 11 -44 13 -18 17 -19 48 -6 18 7 57 17 87 22 58 11 95 27
156 70 22 16 74 38 115 48 41 11 64 20 50 20 -52 1 -116 -21 -173 -59 -52 -35
-111 -60 -142 -60 -7 0 -9 15 -7 35 4 30 0 37 -29 54 -45 28 -83 27 -102 -2
l-15 -22 -16 37 c-20 47 -20 110 -1 174 8 27 15 50 15 51 0 1 -7 0 -15 -3 -10
-4 -15 0 -15 14 0 29 -47 159 -76 208 l-23 41 72 -5 c69 -4 74 -3 126 32 29
20 54 36 56 36 1 0 -4 -26 -11 -57 -16 -67 -19 -273 -4 -273 22 0 85 133 120
255 l17 60 16 -30 c40 -77 125 -122 245 -132 92 -7 148 7 164 42 9 21 18 23
127 29 64 4 159 9 211 13 52 3 93 3 90 0 -16 -16 -277 -127 -299 -127 -36 0
-71 -26 -71 -54 0 -27 45 -76 70 -76 10 0 28 8 41 18 13 10 131 69 262 130
l237 112 103 0 c93 -1 100 -2 77 -15 -14 -8 -20 -14 -15 -14 6 0 21 6 35 14
14 8 35 14 47 15 25 0 31 16 35 90 l3 44 270 123 c148 68 276 123 283 123 7 0
63 23 125 50 191 86 182 80 185 129 3 41 2 42 -20 35 -36 -11 -257 -105 -556
-236 -151 -66 -275 -118 -277 -116 -2 2 0 64 5 139 l9 136 49 51 c64 65 143
195 150 245 4 29 0 45 -17 67 -26 37 -26 40 2 40 13 0 33 9 46 21 21 20 22 26
16 95 -8 86 6 137 60 214 47 67 106 176 120 223 12 42 13 42 69 49 175 22 248
87 183 164 -48 56 -183 122 -316 154 -28 7 -51 13 -51 15 0 1 25 76 55 166 47
139 54 168 45 193 -5 16 -10 41 -10 56 0 15 -2 29 -5 32 -3 3 -67 -3 -143 -13
-91 -13 -138 -15 -141 -8 -9 27 -73 99 -126 142 -115 92 -276 154 -345 132
-17 -5 -21 -13 -17 -33 10 -56 38 -176 42 -180 6 -6 129 64 165 94 l30 26 44
-93 c25 -52 46 -102 48 -113 3 -17 -17 -23 -182 -56 -450 -91 -899 -221 -1337
-387 -134 -51 -155 -62 -175 -93 -71 -106 -254 -117 -340 -21 -20 21 -37 43
-39 49 -5 12 -385 151 -589 215 -395 125 -830 229 -1157 278 -68 10 -83 16
-83 30 0 35 28 49 95 49 l65 0 36 75 37 74 36 -28 c57 -44 131 -83 146 -77 16
6 45 95 45 137 0 49 -50 67 -140 52z m1448 -2243 c35 -28 92 -24 108 8 l12 23
20 -28 c27 -38 42 -97 42 -165 l0 -58 -51 -25 c-70 -36 -135 -42 -185 -19 -60
29 -144 114 -144 148 0 47 71 136 135 169 29 15 30 15 33 -9 2 -13 15 -33 30
-44z m618 13 c19 -19 46 -52 60 -73 34 -51 27 -78 -33 -136 -54 -53 -110 -84
-151 -84 -43 0 -126 27 -157 52 -26 20 -27 24 -22 84 7 68 40 159 62 168 8 3
16 -5 19 -20 5 -20 13 -24 42 -24 50 0 97 35 90 66 -6 22 -5 22 25 12 17 -6
46 -26 65 -45z m-1014 11 c28 -14 70 -44 95 -67 42 -39 45 -44 40 -82 -8 -58
-39 -126 -79 -170 -48 -56 -105 -77 -218 -83 -125 -6 -134 1 -156 118 -17 89
-14 153 10 197 l13 27 12 -22 c16 -29 68 -29 111 1 51 34 58 52 37 89 l-18 31
52 -7 c28 -4 74 -18 101 -32z m1438 28 c0 -4 -5 -13 -11 -19 -18 -18 -6 -65
22 -86 15 -10 47 -21 71 -24 39 -5 45 -2 55 18 11 24 11 23 28 -16 14 -32 16
-58 12 -125 -7 -106 -22 -155 -54 -169 -54 -25 -232 -4 -291 35 -62 41 -137
208 -112 253 17 33 117 103 173 122 55 19 107 24 107 11z m-780 -577 c52 0 77
6 120 28 l54 28 22 -23 c28 -28 44 -118 22 -118 -16 0 -414 87 -438 96 -12 4
-8 11 14 29 l29 23 56 -31 c47 -27 67 -32 121 -32z"/>
<path d="M1835 1924 c-14 -15 -13 -20 18 -62 18 -26 43 -48 54 -50 27 -4 70
35 79 71 5 24 2 29 -30 42 -46 20 -100 19 -121 -1z"/>
<path d="M3668 1842 c-47 -49 -91 -98 -97 -109 -10 -19 -5 -18 52 9 34 17 81
43 105 59 24 16 45 29 47 29 2 0 7 -17 10 -37 15 -92 79 -160 172 -183 60 -16
67 -12 116 59 17 25 35 49 40 52 6 4 6 9 0 12 -5 3 -18 -8 -28 -26 -29 -51
-67 -87 -92 -87 -35 0 -113 43 -153 85 -35 36 -35 37 -35 126 0 60 -3 82 -9
67 -4 -13 -11 -29 -15 -37 -8 -17 -149 -103 -162 -99 -6 2 24 40 66 86 42 45
75 82 72 82 -2 0 -42 -40 -89 -88z"/>
</g>
</svg>
